<svg xmlns="http://www.w3.org/2000/svg" viewBox="0 0 600 400" width="100%" height="100%">
  <defs>
    <linearGradient id="bgGrad" x1="0%" y1="0%" x2="100%" y2="100%">
      <stop offset="0%" stop-color="#f8fafc"/>
      <stop offset="100%" stop-color="#f1f5f9"/>
    </linearGradient>
  </defs>
  <rect width="600" height="400" fill="url(#bgGrad)"/>
  <rect x="20" y="20" width="560" height="360" rx="16" fill="none" stroke="#cbd5e1" stroke-width="2" stroke-dasharray="8 8"/>
  <g transform="translate(300, 175)" text-anchor="middle">
    <!-- Camera/Photo Icon -->
    <circle cx="0" cy="-10" r="46" fill="#e2e8f0"/>
    <path d="M-18,-18 L-14,-26 L14,-26 L18,-18 L24,-18 C26.2,-18 28,-16.2 28,-14 L28,8 C28,10.2 26.2,12 24,12 L-24,12 C-26.2,12 -28,10.2 -28,8 L-28,-14 C-28,-16.2 -26.2,-18 -24,-18 Z" fill="#94a3b8"/>
    <circle cx="0" cy="-3" r="10" fill="#f8fafc"/>
    <circle cx="0" cy="-3" r="6" fill="#94a3b8"/>
    
    <text y="60" font-family="-apple-system, BlinkMacSystemFont, 'Segoe UI', Roboto, sans-serif" font-size="18" font-weight="700" fill="#64748b">No Photo Attached</text>
    <text y="84" font-family="-apple-system, BlinkMacSystemFont, 'Segoe UI', Roboto, sans-serif" font-size="13" fill="#94a3b8">Upload a photo to display in showcase</text>
  </g>
</svg>
